General
Complete name                    : TROY 2004 Extended Cut BRRip 720P TRUE Digital AC3 5.1CH Hindi Audio
Format                           : Matroska
File size                        : 3.63 GiB
Duration                         : 2h 57mn
Overall bit rate                 : 2 929 Kbps

Video
ID                               : 1
Format                           : MPEG-4 Visual
Format profile                   : Advanced Simple@L5
Format settings, BVOP            : Yes
Format settings, QPel            : Yes
Format settings, GMC             : No warppoints
Format settings, Matrix          : Default (MPEG)
Codec ID                         : XVID
Codec ID/Hint                    : XviD
Duration                         : 2h 57mn
Bit rate                         : 2 422 Kbps
Width                            : 1 280 pixels
Height                           : 528 pixels
Display aspect ratio             : 2.40:1
Frame rate                       : 23.976 fps
Color space                      : YUV
Chroma subsampling               : 4:2:0
Bit depth                        : 8 bits
Scan type                        : Progressive
Compression mode                 : Lossy
Bits/(Pixel*Frame)               : 0.149
Stream size                      : 3.00 GiB (83%)

Audio
ID                               : 2
Format                           : AC-3
Format/Info                      : Audio Coding 3
Mode extension                   : CM (complete main)
Muxing mode                      : Header stripping
Codec ID                         : A_AC3
Duration                         : 2h 57mn
Bit rate mode                    : Constant
Bit rate                         : 448 Kbps
Channel(s)                       : 6 channels
Channel positions                : Front: L C R, Side: L R, LFE
Sampling rate                    : 48.0 KHz
Bit depth                        : 16 bits
Compression mode                 : Lossy
Delay relative to video          : 150ms
Stream size                      : 569 MiB (15%)
Title                            : Digital 5.1CH
Language                         : Hindi


Screenshots :
 
http://img94.imageshack.us/img94/379/troy2004extendedverbrri.jpg 
http://img819.imageshack.us/img819/379/troy2004extendedverbrri.jpg 
http://img30.imageshack.us/img30/379/troy2004extendedverbrri.jpg 
http://img6.imageshack.us/img6/379/troy2004extendedverbrri.jpg 
http://img195.imageshack.us/img195/379/troy2004extendedverbrri.jpg 
http://img233.imageshack.us/img233/379/troy2004extendedverbrri.jpg 
http://img812.imageshack.us/img812/379/troy2004extendedverbrri.jpg 
http://img190.imageshack.us/img190/379/troy2004extendedverbrri.jpg 
http://img24.imageshack.us/img24/379/troy2004extendedverbrri.jpg 
http://img29.imageshack.us/img29/379/troy2004extendedverbrri.jpg 
http://img20.imageshack.us/img20/379/troy2004extendedverbrri.jpg
